<svg xmlns="http://www.w3.org/2000/svg" xmlns:xlink="http://www.w3.org/1999/xlink" width="500" zoomAndPan="magnify" viewBox="0 0 375 374.999991" height="500" preserveAspectRatio="xMidYMid meet" version="1.0"><defs><g/></defs><g fill="#000000" fill-opacity="1"><g transform="translate(49.330424, 209.123895)"><g><path d="M 4.75 0.5625 C 3.1875 0.5625 2.40625 0.125 2.40625 -0.75 C 2.40625 -1.632812 2.925781 -2.078125 3.96875 -2.078125 C 5.53125 -2.078125 6.632812 -2.3125 7.28125 -2.78125 C 8.539062 -3.695312 9.28125 -5.269531 9.5 -7.5 C 9.550781 -8.019531 9.609375 -8.8125 9.671875 -9.875 C 9.734375 -10.9375 9.804688 -12.175781 9.890625 -13.59375 C 9.972656 -15.019531 10.050781 -16.59375 10.125 -18.3125 C 10.207031 -20.03125 10.289062 -21.800781 10.375 -23.625 C 10.457031 -25.445312 10.535156 -27.269531 10.609375 -29.09375 C 10.691406 -30.925781 10.753906 -32.671875 10.796875 -34.328125 C 10.921875 -38.460938 10.984375 -41.070312 10.984375 -42.15625 C 10.984375 -43.25 10.898438 -44.101562 10.734375 -44.71875 C 10.578125 -45.34375 10.351562 -45.851562 10.0625 -46.25 C 9.507812 -46.9375 8.628906 -47.367188 7.421875 -47.546875 C 5.296875 -47.847656 4.234375 -48.304688 4.234375 -48.921875 C 4.234375 -49.335938 4.382812 -49.675781 4.6875 -49.9375 C 5 -50.195312 5.40625 -50.328125 5.90625 -50.328125 L 11.734375 -49.8125 L 15 -49.953125 C 15.59375 -49.953125 16.085938 -49.695312 16.484375 -49.1875 C 16.878906 -48.6875 17.320312 -47.941406 17.8125 -46.953125 L 35.78125 -9.71875 C 36.195312 -10.6875 36.75 -11.960938 37.4375 -13.546875 C 38.132812 -15.128906 38.898438 -16.882812 39.734375 -18.8125 C 40.566406 -20.75 41.453125 -22.789062 42.390625 -24.9375 C 43.328125 -27.09375 44.253906 -29.234375 45.171875 -31.359375 C 46.085938 -33.492188 46.960938 -35.535156 47.796875 -37.484375 C 48.640625 -39.441406 49.382812 -41.179688 50.03125 -42.703125 C 50.675781 -44.222656 51.207031 -45.460938 51.625 -46.421875 C 52.050781 -47.390625 52.34375 -48.078125 52.5 -48.484375 C 52.664062 -48.898438 52.984375 -49.28125 53.453125 -49.625 C 53.921875 -49.96875 54.476562 -50.140625 55.125 -50.140625 L 58.609375 -50 L 63.0625 -50.328125 C 64.914062 -50.328125 65.84375 -49.867188 65.84375 -48.953125 C 65.84375 -48.515625 65.429688 -48.210938 64.609375 -48.046875 C 63.796875 -47.890625 63.101562 -47.75 62.53125 -47.625 C 61.96875 -47.5 61.441406 -47.3125 60.953125 -47.0625 C 59.804688 -46.445312 59.234375 -45.421875 59.234375 -43.984375 L 61.125 -7.640625 C 61.320312 -4.453125 62.523438 -2.648438 64.734375 -2.234375 C 65.347656 -2.128906 65.953125 -2.078125 66.546875 -2.078125 C 67.609375 -2.078125 68.140625 -1.632812 68.140625 -0.75 C 68.140625 0.125 67.363281 0.5625 65.8125 0.5625 C 65.1875 0.5625 64.648438 0.53125 64.203125 0.46875 C 63.765625 0.40625 63.320312 0.347656 62.875 0.296875 C 61.539062 0.0976562 60.328125 0 59.234375 0 L 51.328125 0.5625 C 49.722656 0.5625 48.921875 0.101562 48.921875 -0.8125 C 48.921875 -1.582031 49.5 -1.96875 50.65625 -1.96875 C 51.820312 -1.96875 52.671875 -2.0625 53.203125 -2.25 C 53.734375 -2.4375 54.125 -2.726562 54.375 -3.125 C 54.71875 -3.71875 54.890625 -5.113281 54.890625 -7.3125 L 54.890625 -10.796875 C 54.890625 -12.484375 54.765625 -15.898438 54.515625 -21.046875 C 54.273438 -26.191406 54.101562 -29.863281 54 -32.0625 C 53.800781 -36.71875 53.617188 -40.242188 53.453125 -42.640625 L 35.890625 -2.40625 C 35.242188 -0.945312 34.660156 -0.21875 34.140625 -0.21875 C 33.796875 -0.21875 33.503906 -0.394531 33.265625 -0.75 C 33.035156 -1.113281 32.722656 -1.691406 32.328125 -2.484375 L 14.359375 -39.5 C 13.421875 -26.894531 12.953125 -15.375 12.953125 -4.9375 C 12.953125 -2.90625 14.597656 -1.890625 17.890625 -1.890625 C 18.785156 -1.890625 19.234375 -1.53125 19.234375 -0.8125 C 19.234375 0.101562 18.425781 0.5625 16.8125 0.5625 L 10.796875 0 C 9.535156 0 8.347656 0.09375 7.234375 0.28125 C 6.117188 0.46875 5.289062 0.5625 4.75 0.5625 Z M 54.5625 -45.203125 L 54.59375 -45.25 Z M 54.5625 -45.203125 "/></g></g></g><g fill="#000000" fill-opacity="1"><g transform="translate(117.980821, 209.123895)"><g><path d="M 36.8125 -4.96875 C 37.53125 -4.96875 37.890625 -4.640625 37.890625 -3.984375 C 37.890625 -3.328125 37.171875 -2.703125 35.734375 -2.109375 C 34.304688 -1.515625 33.304688 -0.976562 32.734375 -0.5 C 32.171875 -0.0195312 31.75 0.332031 31.46875 0.5625 C 31.195312 0.800781 30.878906 0.921875 30.515625 0.921875 C 29.765625 0.921875 29.140625 0.613281 28.640625 0 C 28.148438 -0.613281 27.488281 -1.9375 26.65625 -3.96875 C 25.238281 -2.363281 23.519531 -1.144531 21.5 -0.3125 C 19.488281 0.507812 17.492188 0.921875 15.515625 0.921875 C 11.773438 0.921875 8.878906 -0.0234375 6.828125 -1.921875 C 4.773438 -3.828125 3.75 -6.4375 3.75 -9.75 C 3.75 -13.070312 5.300781 -15.765625 8.40625 -17.828125 C 11.507812 -19.898438 15.472656 -20.9375 20.296875 -20.9375 C 21.734375 -20.9375 23.628906 -20.6875 25.984375 -20.1875 L 25.984375 -23.09375 C 25.984375 -29.445312 23.296875 -32.625 17.921875 -32.625 C 15.078125 -32.625 12.988281 -31.3125 11.65625 -28.6875 C 10.488281 -26.34375 9.347656 -25.171875 8.234375 -25.171875 C 7.421875 -25.171875 6.710938 -25.40625 6.109375 -25.875 C 5.503906 -26.34375 5.203125 -26.9375 5.203125 -27.65625 C 5.203125 -28.375 5.570312 -29.171875 6.3125 -30.046875 C 7.050781 -30.921875 8.039062 -31.71875 9.28125 -32.4375 C 12.195312 -34.144531 15.398438 -35 18.890625 -35 C 25.078125 -35 29.070312 -32.984375 30.875 -28.953125 C 31.550781 -27.515625 31.890625 -25.757812 31.890625 -23.6875 L 31.890625 -8.875 C 31.890625 -6.96875 32.070312 -5.738281 32.4375 -5.1875 C 32.8125 -4.644531 33.332031 -4.375 34 -4.375 C 34.664062 -4.375 35.207031 -4.472656 35.625 -4.671875 C 36.050781 -4.867188 36.445312 -4.96875 36.8125 -4.96875 Z M 25.984375 -16.734375 C 24.203125 -17.753906 21.945312 -18.265625 19.21875 -18.265625 C 16.5 -18.265625 14.316406 -17.582031 12.671875 -16.21875 C 11.023438 -14.851562 10.203125 -13.023438 10.203125 -10.734375 C 10.203125 -8.453125 10.832031 -6.550781 12.09375 -5.03125 C 13.363281 -3.507812 14.988281 -2.75 16.96875 -2.75 C 21.195312 -2.75 24.238281 -4.132812 26.09375 -6.90625 C 26.019531 -7.59375 25.984375 -8.359375 25.984375 -9.203125 Z M 25.984375 -16.734375 "/></g></g></g><g fill="#000000" fill-opacity="1"><g transform="translate(154.417655, 209.123895)"><g><path d="M 4.484375 0.5625 C 2.859375 0.5625 2.046875 0.101562 2.046875 -0.8125 C 2.046875 -1.53125 2.503906 -1.890625 3.421875 -1.890625 L 5.375 -1.703125 C 5.945312 -1.703125 6.414062 -1.804688 6.78125 -2.015625 C 7.15625 -2.234375 7.441406 -2.6875 7.640625 -3.375 C 8.035156 -4.632812 8.234375 -7.429688 8.234375 -11.765625 L 8.234375 -22.859375 C 8.234375 -25.359375 8.066406 -26.921875 7.734375 -27.546875 C 7.398438 -28.179688 7 -28.617188 6.53125 -28.859375 C 6.0625 -29.097656 5.332031 -29.296875 4.34375 -29.453125 C 3.351562 -29.609375 2.859375 -30 2.859375 -30.625 C 2.859375 -31.1875 3.488281 -31.59375 4.75 -31.84375 C 7.945312 -32.507812 10.078125 -33.140625 11.140625 -33.734375 C 12.597656 -34.578125 13.601562 -35 14.15625 -35 C 14.71875 -35 15 -34.710938 15 -34.140625 C 15 -33.867188 14.945312 -33.585938 14.84375 -33.296875 C 14.375 -32.109375 14.101562 -30.191406 14.03125 -27.546875 C 15.4375 -29.941406 17.195312 -31.78125 19.3125 -33.0625 C 21.4375 -34.351562 23.53125 -35 25.59375 -35 C 27.65625 -35 29.40625 -34.738281 30.84375 -34.21875 C 32.28125 -33.695312 33.503906 -32.90625 34.515625 -31.84375 C 36.597656 -29.613281 37.640625 -26.335938 37.640625 -22.015625 L 37.640625 -11.765625 C 37.640625 -7.429688 37.785156 -4.773438 38.078125 -3.796875 C 38.378906 -2.828125 38.710938 -2.234375 39.078125 -2.015625 C 39.453125 -1.804688 39.925781 -1.703125 40.5 -1.703125 L 42.421875 -1.890625 C 43.335938 -1.890625 43.796875 -1.53125 43.796875 -0.8125 C 43.796875 0.101562 42.96875 0.5625 41.3125 0.5625 C 40.34375 0.5625 39.320312 0.46875 38.25 0.28125 C 37.175781 0.09375 36.023438 0 34.796875 0 C 33.566406 0 32.394531 0.09375 31.28125 0.28125 C 30.175781 0.46875 29.140625 0.5625 28.171875 0.5625 C 26.515625 0.5625 25.6875 0.101562 25.6875 -0.8125 C 25.6875 -1.53125 26.144531 -1.890625 27.0625 -1.890625 L 28.984375 -1.703125 C 29.554688 -1.703125 30.023438 -1.804688 30.390625 -2.015625 C 30.765625 -2.234375 31.066406 -2.6875 31.296875 -3.375 C 31.691406 -4.613281 31.890625 -7.410156 31.890625 -11.765625 L 31.890625 -20.234375 C 31.890625 -27.304688 29.3125 -30.84375 24.15625 -30.84375 C 20.519531 -30.84375 17.6875 -29.195312 15.65625 -25.90625 C 14.945312 -24.695312 14.394531 -23.210938 14 -21.453125 L 14 -11.765625 C 14 -7.429688 14.144531 -4.773438 14.4375 -3.796875 C 14.738281 -2.828125 15.070312 -2.234375 15.4375 -2.015625 C 15.8125 -1.804688 16.28125 -1.703125 16.84375 -1.703125 L 18.8125 -1.890625 C 19.726562 -1.890625 20.1875 -1.53125 20.1875 -0.8125 C 20.1875 0.101562 19.367188 0.5625 17.734375 0.5625 C 16.796875 0.5625 15.800781 0.46875 14.75 0.28125 C 13.695312 0.09375 12.515625 0 11.203125 0 C 9.890625 0 8.679688 0.09375 7.578125 0.28125 C 6.484375 0.46875 5.453125 0.5625 4.484375 0.5625 Z M 4.484375 0.5625 "/></g></g></g><g fill="#000000" fill-opacity="1"><g transform="translate(196.940921, 209.123895)"><g><path d="M 15.1875 -46.078125 C 15.1875 -45.023438 14.832031 -44.132812 14.125 -43.40625 C 13.414062 -42.675781 12.460938 -42.3125 11.265625 -42.3125 C 10.066406 -42.3125 9.140625 -42.660156 8.484375 -43.359375 C 7.828125 -44.066406 7.5 -44.835938 7.5 -45.671875 C 7.5 -46.503906 7.609375 -47.140625 7.828125 -47.578125 C 8.054688 -48.023438 8.34375 -48.410156 8.6875 -48.734375 C 9.457031 -49.398438 10.390625 -49.734375 11.484375 -49.734375 C 12.585938 -49.734375 13.476562 -49.382812 14.15625 -48.6875 C 14.84375 -48 15.1875 -47.128906 15.1875 -46.078125 Z M 4.96875 0.5625 C 3.3125 0.5625 2.484375 0.101562 2.484375 -0.8125 C 2.484375 -1.53125 2.941406 -1.890625 3.859375 -1.890625 L 5.71875 -1.703125 C 6.28125 -1.703125 6.75 -1.804688 7.125 -2.015625 C 7.5 -2.234375 7.796875 -2.6875 8.015625 -3.375 C 8.410156 -4.613281 8.609375 -7.410156 8.609375 -11.765625 L 8.609375 -22.9375 C 8.609375 -25.382812 8.441406 -26.9375 8.109375 -27.59375 C 7.773438 -28.25 7.394531 -28.691406 6.96875 -28.921875 C 6.550781 -29.160156 5.851562 -29.347656 4.875 -29.484375 C 3.90625 -29.617188 3.421875 -30.007812 3.421875 -30.65625 C 3.421875 -31.226562 4.0625 -31.648438 5.34375 -31.921875 C 8.289062 -32.515625 10.320312 -33.117188 11.4375 -33.734375 C 12.96875 -34.597656 14.019531 -35.03125 14.59375 -35.03125 C 15.15625 -35.03125 15.4375 -34.75 15.4375 -34.1875 C 15.4375 -33.914062 15.390625 -33.628906 15.296875 -33.328125 C 14.722656 -31.617188 14.4375 -28.253906 14.4375 -23.234375 L 14.4375 -11.765625 C 14.4375 -7.410156 14.585938 -4.75 14.890625 -3.78125 C 15.203125 -2.820312 15.546875 -2.234375 15.921875 -2.015625 C 16.296875 -1.804688 16.765625 -1.703125 17.328125 -1.703125 L 19.1875 -1.890625 C 20.101562 -1.890625 20.5625 -1.53125 20.5625 -0.8125 C 20.5625 0.101562 19.734375 0.5625 18.078125 0.5625 C 17.140625 0.5625 16.128906 0.46875 15.046875 0.28125 C 13.972656 0.09375 12.816406 0 11.578125 0 C 10.335938 0 9.160156 0.09375 8.046875 0.28125 C 6.941406 0.46875 5.914062 0.5625 4.96875 0.5625 Z M 4.96875 0.5625 "/></g></g></g><g fill="#000000" fill-opacity="1"><g transform="translate(216.751399, 209.123895)"><g><path d="M 5.828125 0.5625 C 4.171875 0.5625 3.34375 0.101562 3.34375 -0.8125 C 3.34375 -1.53125 3.800781 -1.890625 4.71875 -1.890625 L 6.203125 -1.703125 C 6.765625 -1.703125 7.222656 -1.804688 7.578125 -2.015625 C 7.941406 -2.234375 8.210938 -2.6875 8.390625 -3.375 C 8.710938 -4.539062 8.875 -7.335938 8.875 -11.765625 L 8.875 -31.140625 L 5.375 -31.21875 C 4.957031 -31.21875 4.75 -31.453125 4.75 -31.921875 C 4.75 -32.835938 4.898438 -33.4375 5.203125 -33.71875 C 5.515625 -34 5.769531 -34.140625 5.96875 -34.140625 L 8.875 -34.140625 L 8.875 -34.265625 C 8.875 -44.628906 11.050781 -51.070312 15.40625 -53.59375 C 16.914062 -54.488281 18.722656 -54.9375 20.828125 -54.9375 C 22.628906 -54.9375 23.976562 -54.742188 24.875 -54.359375 C 25.78125 -53.972656 26.441406 -53.660156 26.859375 -53.421875 C 27.285156 -53.191406 27.6875 -52.925781 28.0625 -52.625 C 28.90625 -51.882812 29.328125 -51.160156 29.328125 -50.453125 C 29.328125 -49.753906 29.085938 -49.195312 28.609375 -48.78125 C 28.140625 -48.375 27.671875 -48.171875 27.203125 -48.171875 C 26.734375 -48.171875 26.363281 -48.191406 26.09375 -48.234375 C 25.820312 -48.273438 25.535156 -48.378906 25.234375 -48.546875 C 24.640625 -48.867188 24.0625 -49.34375 23.5 -49.96875 C 22.945312 -50.601562 22.578125 -51.023438 22.390625 -51.234375 C 22.210938 -51.453125 22 -51.632812 21.75 -51.78125 C 21.175781 -52.101562 20.390625 -52.265625 19.390625 -52.265625 C 18.390625 -52.265625 17.597656 -51.910156 17.015625 -51.203125 C 16.429688 -50.492188 15.976562 -49.410156 15.65625 -47.953125 C 15.164062 -45.597656 14.921875 -41.21875 14.921875 -34.8125 L 14.921875 -34.140625 L 22.71875 -34.140625 C 23.507812 -34.140625 23.90625 -33.804688 23.90625 -33.140625 C 23.90625 -32.347656 23.738281 -31.769531 23.40625 -31.40625 C 23.070312 -31.050781 22.804688 -30.875 22.609375 -30.875 L 14.921875 -31.03125 L 14.921875 -11.84375 C 14.921875 -7.257812 15.066406 -4.519531 15.359375 -3.625 C 15.660156 -2.738281 16.015625 -2.207031 16.421875 -2.03125 C 16.828125 -1.863281 17.363281 -1.78125 18.03125 -1.78125 L 21.71875 -2.046875 C 22.832031 -2.046875 23.390625 -1.609375 23.390625 -0.734375 C 23.390625 0.128906 22.484375 0.5625 20.671875 0.5625 L 12.140625 0 C 10.878906 0 9.722656 0.09375 8.671875 0.28125 C 7.617188 0.46875 6.671875 0.5625 5.828125 0.5625 Z M 5.828125 0.5625 "/></g></g></g><g fill="#000000" fill-opacity="1"><g transform="translate(240.681346, 209.123895)"><g><path d="M 2.828125 -16.484375 C 2.828125 -18.878906 3.257812 -21.203125 4.125 -23.453125 C 4.988281 -25.703125 6.210938 -27.679688 7.796875 -29.390625 C 11.253906 -33.128906 15.570312 -35 20.75 -35 C 26.488281 -35 30.90625 -33.28125 34 -29.84375 C 36.789062 -26.726562 38.1875 -22.679688 38.1875 -17.703125 C 38.1875 -12.679688 36.519531 -8.335938 33.1875 -4.671875 C 29.769531 -0.941406 25.460938 0.921875 20.265625 0.921875 C 14.523438 0.921875 10.117188 -0.796875 7.046875 -4.234375 C 4.234375 -7.347656 2.828125 -11.429688 2.828125 -16.484375 Z M 9.09375 -18.03125 C 9.09375 -15.613281 9.425781 -13.351562 10.09375 -11.25 C 10.757812 -9.144531 11.675781 -7.398438 12.84375 -6.015625 C 15.144531 -3.191406 18.050781 -1.78125 21.5625 -1.78125 C 24.675781 -1.78125 27.210938 -3.019531 29.171875 -5.5 C 31.203125 -8.070312 32.21875 -11.382812 32.21875 -15.4375 C 32.21875 -20.8125 30.976562 -25.019531 28.5 -28.0625 C 26.175781 -30.851562 23.257812 -32.25 19.75 -32.25 C 16.625 -32.25 14.085938 -31.015625 12.140625 -28.546875 C 10.109375 -25.972656 9.09375 -22.46875 9.09375 -18.03125 Z M 9.09375 -18.03125 "/></g></g></g><g fill="#000000" fill-opacity="1"><g transform="translate(279.567597, 209.123895)"><g><path d="M 4.53125 0.5625 C 2.894531 0.5625 2.078125 0.101562 2.078125 -0.8125 C 2.078125 -1.53125 2.535156 -1.890625 3.453125 -1.890625 L 5.3125 -1.703125 C 5.875 -1.703125 6.34375 -1.804688 6.71875 -2.015625 C 7.09375 -2.234375 7.378906 -2.6875 7.578125 -3.375 C 7.972656 -4.632812 8.171875 -7.429688 8.171875 -11.765625 L 8.171875 -39.421875 C 8.171875 -43.523438 7.316406 -45.703125 5.609375 -45.953125 C 4.367188 -46.148438 3.75 -46.554688 3.75 -47.171875 C 3.75 -47.742188 4.328125 -48.144531 5.484375 -48.375 C 6.648438 -48.613281 7.703125 -48.910156 8.640625 -49.265625 C 9.585938 -49.628906 10.421875 -49.976562 11.140625 -50.3125 C 11.859375 -50.644531 12.46875 -50.9375 12.96875 -51.1875 C 13.476562 -51.4375 13.84375 -51.5625 14.0625 -51.5625 C 14.632812 -51.5625 14.921875 -51.273438 14.921875 -50.703125 C 14.921875 -50.429688 14.867188 -50.144531 14.765625 -49.84375 C 14.253906 -48.507812 13.984375 -46.816406 13.953125 -44.765625 C 13.929688 -42.710938 13.921875 -41.03125 13.921875 -39.71875 L 13.921875 -11.765625 C 13.921875 -7.429688 14.066406 -4.773438 14.359375 -3.796875 C 14.660156 -2.828125 14.992188 -2.234375 15.359375 -2.015625 C 15.734375 -1.804688 16.207031 -1.703125 16.78125 -1.703125 L 18.625 -1.890625 C 19.539062 -1.890625 20 -1.53125 20 -0.8125 C 20 0.101562 19.1875 0.5625 17.5625 0.5625 C 16.613281 0.5625 15.632812 0.46875 14.625 0.28125 C 13.613281 0.09375 12.453125 0 11.140625 0 C 9.828125 0 8.628906 0.09375 7.546875 0.28125 C 6.472656 0.46875 5.46875 0.5625 4.53125 0.5625 Z M 4.53125 0.5625 "/></g></g></g><g fill="#000000" fill-opacity="1"><g transform="translate(299.563629, 209.123895)"><g><path d="M 29.4375 -3.296875 C 26.789062 -0.484375 23.3125 0.921875 19 0.921875 C 13.957031 0.921875 9.972656 -0.820312 7.046875 -4.3125 C 4.347656 -7.570312 3 -11.726562 3 -16.78125 C 3 -21.820312 4.660156 -26.113281 7.984375 -29.65625 C 11.316406 -33.21875 15.472656 -35 20.453125 -35 C 23.710938 -35 26.445312 -34.378906 28.65625 -33.140625 L 28.65625 -40.984375 C 28.65625 -43.304688 28.46875 -44.816406 28.09375 -45.515625 C 27.726562 -46.222656 27.332031 -46.703125 26.90625 -46.953125 C 26.488281 -47.203125 25.816406 -47.398438 24.890625 -47.546875 C 23.960938 -47.691406 23.5 -48.078125 23.5 -48.703125 C 23.5 -49.265625 24.128906 -49.671875 25.390625 -49.921875 C 28.359375 -50.535156 30.398438 -51.164062 31.515625 -51.8125 C 33.023438 -52.65625 34.039062 -53.078125 34.5625 -53.078125 C 35.125 -53.078125 35.40625 -52.789062 35.40625 -52.21875 C 35.40625 -51.945312 35.359375 -51.664062 35.265625 -51.375 C 34.742188 -50.03125 34.46875 -48.332031 34.4375 -46.28125 C 34.414062 -44.226562 34.40625 -42.5625 34.40625 -41.28125 L 34.40625 -10.875 C 34.40625 -8.15625 34.566406 -6.398438 34.890625 -5.609375 C 35.210938 -4.816406 35.535156 -4.300781 35.859375 -4.0625 C 36.179688 -3.832031 36.5625 -3.71875 37 -3.71875 L 39.234375 -4.1875 C 39.953125 -4.1875 40.3125 -3.867188 40.3125 -3.234375 C 40.3125 -2.859375 40.15625 -2.546875 39.84375 -2.296875 C 39.53125 -2.054688 39.003906 -1.773438 38.265625 -1.453125 C 37.523438 -1.128906 36.90625 -0.789062 36.40625 -0.4375 C 35.914062 -0.09375 35.484375 0.222656 35.109375 0.515625 C 34.265625 1.234375 33.609375 1.59375 33.140625 1.59375 C 31.535156 1.59375 30.300781 -0.0351562 29.4375 -3.296875 Z M 28.65625 -27.609375 C 26.40625 -30.679688 23.285156 -32.21875 19.296875 -32.21875 C 16.304688 -32.21875 13.90625 -31.066406 12.09375 -28.765625 C 10.164062 -26.335938 9.203125 -23.019531 9.203125 -18.8125 C 9.203125 -13.914062 10.453125 -9.992188 12.953125 -7.046875 C 15.273438 -4.273438 18.0625 -2.890625 21.3125 -2.890625 C 24.59375 -2.890625 27.101562 -4.054688 28.84375 -6.390625 C 28.71875 -7.296875 28.65625 -8.359375 28.65625 -9.578125 Z M 28.65625 -27.609375 "/></g></g></g></svg>